<svg width="634" height="67" viewBox="0 0 634 67" fill="none" xmlns="http://www.w3.org/2000/svg">
<g id="BRUCE WAYNE">
<path d="M0.950012 65V62.03C3.23001 61.97 4.79001 61.46 5.63001 60.5C6.47001 59.48 6.92001 58.13 6.98001 56.45C7.10001 54.71 7.16001 52.73 7.16001 50.51V12.71C7.16001 9.47004 7.25001 7.10004 7.43001 5.60004C6.35001 5.66004 5.27001 5.72004 4.19001 5.78004C3.11001 5.84004 2.03001 5.90004 0.950012 5.96004V2.00004C4.25001 1.94004 7.55001 1.91004 10.85 1.91004C14.21 1.85004 17.69 1.82004 21.29 1.82004C28.25 1.82004 33.68 3.05004 37.58 5.51004C41.54 7.97004 43.46 11.87 43.34 17.21C43.34 19.13 42.77 21.05 41.63 22.97C40.55 24.89 38.9 26.6 36.68 28.1C34.52 29.54 31.79 30.56 28.49 31.16V31.34C35.09 31.34 40.07 32.87 43.43 35.93C46.79 38.93 48.47 42.74 48.47 47.36C48.47 51.02 47.54 54.17 45.68 56.81C43.82 59.45 41.3 61.49 38.12 62.93C34.94 64.31 31.31 65 27.23 65H0.950012ZM14.99 30.53L21.56 30.35C24.98 30.29 27.68 29.6 29.66 28.28C31.64 26.9 33.05 25.19 33.89 23.15C34.79 21.11 35.21 18.98 35.15 16.76C35.09 13.52 34.34 11.06 32.9 9.38004C31.52 7.70004 29.81 6.56004 27.77 5.96004C25.73 5.36004 23.72 5.06004 21.74 5.06004C18.8 5.06004 16.94 5.69004 16.16 6.95004C15.38 8.21004 14.99 10.49 14.99 13.79V30.53ZM14.72 61.4C15.68 61.46 16.82 61.52 18.14 61.58C19.52 61.58 20.78 61.58 21.92 61.58C23.12 61.58 23.9 61.58 24.26 61.58C28.88 61.58 32.6 60.44 35.42 58.16C38.3 55.82 39.74 52.4 39.74 47.9C39.74 44.24 39.02 41.39 37.58 39.35C36.14 37.31 34.25 35.87 31.91 35.03C29.57 34.19 27.02 33.77 24.26 33.77C22.46 33.77 20.81 33.8 19.31 33.86C17.87 33.86 16.43 33.92 14.99 34.04V54.38C14.99 57.5 14.9 59.84 14.72 61.4Z" fill="#C39622"/>
<path d="M56.1453 65V62.03C58.4253 61.91 59.9853 61.4 60.8253 60.5C61.6653 59.54 62.1153 58.25 62.1753 56.63C62.2953 54.95 62.3553 53.06 62.3553 50.96V12.08C62.3553 9.56004 62.4453 7.40004 62.6253 5.60004C61.5453 5.66004 60.4653 5.72004 59.3853 5.78004C58.3053 5.84004 57.2253 5.90004 56.1453 5.96004V2.00004C59.5053 1.94004 62.8953 1.88004 66.3153 1.82004C69.7953 1.76004 73.2753 1.79004 76.7553 1.91004C85.4553 2.03004 91.6953 3.50004 95.4753 6.32004C99.3153 9.14004 101.235 13.04 101.235 18.02C101.295 20.36 100.845 22.76 99.8853 25.22C98.9853 27.62 97.3053 29.78 94.8453 31.7C92.4453 33.62 88.9653 35.06 84.4053 36.02C85.6053 36.86 86.6553 37.94 87.5553 39.26C88.4553 40.58 89.4753 42.11 90.6153 43.85L96.7353 53.48C97.7553 55.1 98.7453 56.57 99.7053 57.89C100.665 59.15 101.775 60.17 103.035 60.95C104.295 61.67 105.855 62.03 107.715 62.03V65H96.3753C94.6353 63.44 93.1653 61.88 91.9653 60.32C90.8253 58.76 89.6253 56.99 88.3653 55.01L82.3353 45.38C81.5553 44.12 80.6553 42.68 79.6353 41.06C78.6753 39.38 77.5653 37.97 76.3053 36.83C75.3453 36.89 74.3253 36.92 73.2453 36.92C72.2253 36.92 71.2053 36.89 70.1853 36.83V54.29C70.1853 57.47 70.0953 59.84 69.9153 61.4C70.9953 61.34 72.0753 61.28 73.1553 61.22C74.2353 61.16 75.3153 61.1 76.3953 61.04V65H56.1453ZM75.7653 33.5C79.0653 33.38 81.9453 32.84 84.4053 31.88C86.9253 30.92 88.9053 29.39 90.3453 27.29C91.7853 25.19 92.5053 22.43 92.5053 19.01C92.5053 14.45 91.1853 11.03 88.5453 8.75004C85.9653 6.47004 81.9153 5.33004 76.3953 5.33004C74.1753 5.33004 72.6153 5.78004 71.7153 6.68004C70.8753 7.58004 70.3953 8.84004 70.2753 10.46C70.2153 12.02 70.1853 13.88 70.1853 16.04V33.32C71.1453 33.38 72.0453 33.44 72.8853 33.5C73.7853 33.56 74.7453 33.56 75.7653 33.5Z" fill="#C39622"/>
<path d="M130.132 4.97004C128.152 4.97004 126.712 5.39004 125.812 6.23004C124.972 7.07004 124.462 8.06004 124.282 9.20004C124.102 10.28 124.012 11.24 124.012 12.08V34.76C124.012 38.12 124.222 41.39 124.642 44.57C125.122 47.69 125.992 50.51 127.252 53.03C128.512 55.55 130.372 57.56 132.832 59.06C135.352 60.56 138.622 61.31 142.642 61.31C146.962 61.31 150.472 60.29 153.172 58.25C155.932 56.21 157.942 53.39 159.202 49.79C160.522 46.19 161.212 42.05 161.272 37.37L161.542 12.08C161.542 9.56004 161.632 7.40004 161.812 5.60004C160.732 5.66004 159.652 5.72004 158.572 5.78004C157.552 5.84004 156.502 5.90004 155.422 5.96004V2.00004H172.162V4.97004C169.882 5.03004 168.292 5.54004 167.392 6.50004C166.552 7.46004 166.072 8.75004 165.952 10.37C165.892 11.99 165.862 13.88 165.862 16.04L165.682 36.92C165.682 40.82 165.262 44.54 164.422 48.08C163.582 51.62 162.202 54.77 160.282 57.53C158.422 60.29 155.932 62.48 152.812 64.1C149.752 65.66 145.972 66.44 141.472 66.44C135.052 66.44 129.982 65.3 126.262 63.02C122.602 60.74 119.992 57.23 118.432 52.49C116.872 47.75 116.092 41.69 116.092 34.31V16.04C116.092 14.48 116.122 12.65 116.182 10.55C116.302 8.39004 116.392 6.74004 116.452 5.60004C115.372 5.66004 114.292 5.72004 113.212 5.78004C112.132 5.78004 111.052 5.81004 109.972 5.87004V2.00004H130.132V4.97004Z" fill="#C39622"/>
<path d="M229.05 22.07C228.45 16.43 226.47 12.05 223.11 8.93004C219.81 5.81004 215.55 4.25004 210.33 4.25004C206.07 4.25004 202.2 5.45004 198.72 7.85004C195.24 10.19 192.45 13.52 190.35 17.84C188.31 22.16 187.29 27.26 187.29 33.14C187.29 38.78 188.37 43.76 190.53 48.08C192.69 52.4 195.6 55.76 199.26 58.16C202.92 60.56 206.97 61.76 211.41 61.76C215.31 61.76 219.15 60.89 222.93 59.15C226.71 57.35 229.8 54.77 232.2 51.41L234.54 53.3C231.96 56.84 229.17 59.57 226.17 61.49C223.17 63.41 220.17 64.7 217.17 65.36C214.23 66.08 211.53 66.44 209.07 66.44C204.57 66.44 200.43 65.63 196.65 64.01C192.93 62.39 189.69 60.14 186.93 57.26C184.23 54.32 182.13 50.93 180.63 47.09C179.19 43.19 178.47 38.99 178.47 34.49C178.47 30.23 179.1 26.09 180.36 22.07C181.68 18.05 183.63 14.42 186.21 11.18C188.79 7.94004 192.03 5.36004 195.93 3.44004C199.89 1.52004 204.48 0.560041 209.7 0.560041C216.3 0.560041 222.36 2.39004 227.88 6.05004L227.43 1.19004H232.29V22.07H229.05Z" fill="#C39622"/>
<path d="M273.53 41.69C273.53 39.05 273.17 37.16 272.45 36.02C271.73 34.88 270.59 34.19 269.03 33.95C267.47 33.71 265.4 33.65 262.82 33.77L256.25 34.04V54.65C256.25 57.77 256.16 60.11 255.98 61.67L273.17 61.4C275.81 61.34 278.09 60.92 280.01 60.14C281.93 59.3 283.43 57.86 284.51 55.82C285.59 53.78 286.13 50.99 286.13 47.45H289.19L288.65 65H242.21V62.03C244.49 61.91 246.05 61.4 246.89 60.5C247.73 59.54 248.18 58.25 248.24 56.63C248.36 54.95 248.42 53.06 248.42 50.96V12.08C248.42 9.56004 248.51 7.40004 248.69 5.60004C247.61 5.66004 246.53 5.72004 245.45 5.78004C244.37 5.84004 243.29 5.90004 242.21 5.96004V2.00004H285.5L285.95 17.75H282.98C282.98 14.21 282.44 11.54 281.36 9.74004C280.28 7.88004 278.81 6.65004 276.95 6.05004C275.15 5.39004 273.11 5.09004 270.83 5.15004L263.09 5.33004C260.87 5.39004 259.28 5.81004 258.32 6.59004C257.36 7.37004 256.76 8.54004 256.52 10.1C256.34 11.6 256.25 13.58 256.25 16.04V30.44L273.17 30.53L272.54 22.79H276.5V41.69H273.53Z" fill="#C39622"/>
<path d="M342.449 65.9L326.339 18.02C325.319 14.84 324.509 12.35 323.909 10.55C323.309 8.69004 322.859 7.10004 322.559 5.78004C321.719 5.84004 320.879 5.87004 320.039 5.87004C319.199 5.87004 318.359 5.90004 317.519 5.96004V2.00004H339.389V4.97004C335.909 5.15004 333.809 5.93004 333.089 7.31004C332.429 8.69004 332.579 11.18 333.539 14.78C334.559 18.74 335.669 22.31 336.869 25.49C338.069 28.67 339.239 32.09 340.379 35.75C341.219 38.45 342.059 40.94 342.899 43.22C343.799 45.5 344.699 48.05 345.599 50.87H345.779C346.379 48.83 347.039 46.64 347.759 44.3C348.479 41.96 349.049 40.19 349.469 38.99C351.149 33.65 352.799 28.49 354.419 23.51C356.099 18.47 357.569 14.06 358.829 10.28C360.089 6.44004 360.959 3.62004 361.439 1.82004H364.319C364.859 3.80004 365.639 6.32004 366.659 9.38004C367.679 12.44 368.759 15.65 369.899 19.01C371.039 22.37 372.089 25.55 373.049 28.55C374.069 31.55 374.879 33.95 375.479 35.75C376.319 38.45 377.189 41.12 378.089 43.76C379.049 46.4 379.919 49.13 380.699 51.95H380.969C381.509 50.21 382.079 48.35 382.679 46.37C383.339 44.39 383.999 42.38 384.659 40.34C386.219 35.9 387.479 32.18 388.439 29.18C389.459 26.18 390.269 23.69 390.869 21.71C391.529 19.73 392.069 18.02 392.489 16.58C392.969 15.08 393.449 13.64 393.929 12.26C394.289 11.24 394.679 10.16 395.099 9.02004C395.579 7.82004 396.119 6.71004 396.719 5.69004C395.519 5.75004 394.319 5.81004 393.119 5.87004C391.919 5.87004 390.719 5.90004 389.519 5.96004V2.00004H407.789V4.97004C405.749 5.21004 404.129 5.66004 402.929 6.32004C401.789 6.98004 400.769 8.21004 399.869 10.01C398.969 11.81 397.889 14.57 396.629 18.29C393.869 26.45 391.169 34.49 388.529 42.41C385.949 50.27 383.249 58.1 380.429 65.9H377.729L364.049 26.84C363.509 25.28 362.969 23.75 362.429 22.25C361.949 20.75 361.439 19.25 360.899 17.75C360.419 19.25 359.909 20.75 359.369 22.25C358.889 23.75 358.409 25.25 357.929 26.75L345.059 65.9H342.449Z" fill="#C39622"/>
<path d="M401.954 65V62.03C403.754 62.03 405.134 61.55 406.094 60.59C407.054 59.63 407.834 58.31 408.434 56.63C409.094 54.95 409.844 53 410.684 50.78L429.224 0.290039H431.384L451.454 51.5C451.934 52.76 452.474 54.38 453.074 56.36C453.674 58.34 453.914 60.02 453.794 61.4C454.814 61.34 455.834 61.28 456.854 61.22C457.874 61.16 458.894 61.1 459.914 61.04V65H439.304V62.03C441.584 61.97 443.084 61.46 443.804 60.5C444.524 59.54 444.794 58.4 444.614 57.08C444.434 55.76 444.134 54.56 443.714 53.48L440.564 45.02L417.164 45.56L414.014 55.19C413.594 56.63 413.204 57.77 412.844 58.61C412.544 59.45 412.184 60.38 411.764 61.4C412.964 61.34 414.134 61.28 415.274 61.22C416.474 61.16 417.644 61.1 418.784 61.04V65H401.954ZM418.514 41.69H439.304L432.914 24.5C432.254 22.64 431.564 20.81 430.844 19.01C430.184 17.15 429.524 15.29 428.864 13.43H428.684C428.084 15.11 427.454 16.79 426.794 18.47C426.194 20.15 425.564 21.86 424.904 23.6L418.514 41.69Z" fill="#C39622"/>
<path d="M475.106 65V62.03C477.386 61.91 478.916 61.37 479.696 60.41C480.536 59.45 480.986 58.16 481.046 56.54C481.166 54.86 481.226 53 481.226 50.96L481.316 40.7L465.656 15.95C464.156 13.55 463.016 11.54 462.236 9.92004C461.516 8.30004 461.036 6.92004 460.796 5.78004C459.836 5.84004 458.906 5.87004 458.006 5.87004C457.106 5.87004 456.176 5.90004 455.216 5.96004V2.00004H478.436V4.97004C475.676 4.97004 473.756 5.39004 472.676 6.23004C471.596 7.07004 471.176 8.24004 471.416 9.74004C471.716 11.18 472.466 12.86 473.666 14.78L480.866 26.12C481.706 27.44 482.576 28.79 483.476 30.17C484.376 31.49 485.366 32.9 486.446 34.4H486.626C487.286 33.08 487.946 31.82 488.606 30.62C489.266 29.36 489.896 28.16 490.496 27.02L498.146 12.53C498.626 11.69 499.256 10.58 500.036 9.20004C500.816 7.82004 501.626 6.65004 502.466 5.69004C501.326 5.75004 500.156 5.81004 498.956 5.87004C497.756 5.87004 496.556 5.90004 495.356 5.96004V2.00004H513.716V4.97004C510.776 5.15004 508.346 6.17004 506.426 8.03004C504.566 9.89004 502.586 12.74 500.486 16.58C498.446 20.42 496.466 24.11 494.546 27.65C492.686 31.19 490.886 34.64 489.146 38C489.146 39.08 489.116 40.52 489.056 42.32C489.056 44.12 489.056 45.95 489.056 47.81C489.056 49.61 489.056 51.14 489.056 52.4C489.056 53.66 489.056 54.29 489.056 54.29C489.056 57.47 488.966 59.84 488.786 61.4C490.046 61.34 491.276 61.28 492.476 61.22C493.736 61.16 494.996 61.1 496.256 61.04V65H475.106Z" fill="#C39622"/>
<path d="M566.977 66.44L531.067 18.2C530.527 17.48 529.987 16.79 529.447 16.13C528.967 15.41 528.457 14.69 527.917 13.97H527.827L528.097 52.49C528.097 53.99 528.097 55.49 528.097 56.99C528.097 58.49 528.037 59.96 527.917 61.4C528.997 61.34 530.077 61.28 531.157 61.22C532.237 61.16 533.317 61.1 534.397 61.04V65H517.927V62.03C519.787 62.03 521.107 61.64 521.887 60.86C522.727 60.02 523.267 59.06 523.507 57.98C523.747 56.84 523.867 55.82 523.867 54.92L523.957 11.63V5.60004C522.997 5.66004 522.007 5.72004 520.987 5.78004C519.967 5.84004 518.947 5.90004 517.927 5.96004V2.00004H528.637L562.387 47.18C563.167 48.2 563.917 49.22 564.637 50.24C565.417 51.26 566.197 52.28 566.977 53.3H567.067L567.157 12.08C567.157 9.56004 567.247 7.40004 567.427 5.60004C566.347 5.66004 565.267 5.72004 564.187 5.78004C563.107 5.84004 562.027 5.90004 560.947 5.96004V2.00004H577.507V4.97004C575.287 5.03004 573.757 5.54004 572.917 6.50004C572.077 7.46004 571.627 8.75004 571.567 10.37C571.507 11.99 571.477 13.88 571.477 16.04L571.297 66.44H566.977Z" fill="#C39622"/>
<path d="M617.622 41.69C617.622 39.05 617.262 37.16 616.542 36.02C615.822 34.88 614.682 34.19 613.122 33.95C611.562 33.71 609.492 33.65 606.912 33.77L600.342 34.04V54.65C600.342 57.77 600.252 60.11 600.072 61.67L617.262 61.4C619.902 61.34 622.182 60.92 624.102 60.14C626.022 59.3 627.522 57.86 628.602 55.82C629.682 53.78 630.222 50.99 630.222 47.45H633.282L632.742 65H586.302V62.03C588.582 61.91 590.142 61.4 590.982 60.5C591.822 59.54 592.272 58.25 592.332 56.63C592.452 54.95 592.512 53.06 592.512 50.96V12.08C592.512 9.56004 592.602 7.40004 592.782 5.60004C591.702 5.66004 590.622 5.72004 589.542 5.78004C588.462 5.84004 587.382 5.90004 586.302 5.96004V2.00004H629.592L630.042 17.75H627.072C627.072 14.21 626.532 11.54 625.452 9.74004C624.372 7.88004 622.902 6.65004 621.042 6.05004C619.242 5.39004 617.202 5.09004 614.922 5.15004L607.182 5.33004C604.962 5.39004 603.372 5.81004 602.412 6.59004C601.452 7.37004 600.852 8.54004 600.612 10.1C600.432 11.6 600.342 13.58 600.342 16.04V30.44L617.262 30.53L616.632 22.79H620.592V41.69H617.622Z" fill="#C39622"/>
</g>
</svg>
